<svg width="400" height="400" viewBox="0 0 400 400" fill="none" xmlns="http://www.w3.org/2000/svg">
<path fill-rule="evenodd" clip-rule="evenodd" d="M237.072 60.108H207.175L197.837 111.749H128.079L119.839 173.113L184.968 173.761L176.415 227.455H109.952L99.9082 288.171H166.303L157.426 341H195.326L195.429 337.293L202.859 288.171L317.502 290.439L321.583 227.455H212.119L220.201 173.113L321.583 173.761L329.665 111.749H229.46L237.072 60.108Z" fill="#B70501"/>
<path d="M207.175 60.108V59.608H206.757L206.683 60.019L207.175 60.108ZM237.072 60.108L237.566 60.1809L237.651 59.608H237.072V60.108ZM197.837 111.749V112.249H198.255L198.329 111.838L197.837 111.749ZM128.079 111.749V111.249H127.641L127.583 111.682L128.079 111.749ZM119.839 173.113L119.344 173.046L119.268 173.607L119.834 173.613L119.839 173.113ZM184.968 173.761L185.462 173.84L185.553 173.267L184.973 173.261L184.968 173.761ZM176.415 227.455V227.955H176.842L176.909 227.533L176.415 227.455ZM109.952 227.455V226.955H109.528L109.459 227.373L109.952 227.455ZM99.9082 288.171L99.4149 288.089L99.3187 288.671H99.9082V288.171ZM166.303 288.171L166.797 288.254L166.894 287.671H166.303V288.171ZM157.426 341L156.933 340.917L156.835 341.5H157.426V341ZM195.326 341V341.5H195.813L195.826 341.014L195.326 341ZM195.429 337.293L194.935 337.218L194.93 337.248L194.93 337.279L195.429 337.293ZM202.859 288.171L202.869 287.671L202.431 287.662L202.365 288.096L202.859 288.171ZM317.502 290.439L317.493 290.939L317.97 290.949L318.001 290.472L317.502 290.439ZM321.583 227.455L322.082 227.487L322.116 226.955H321.583V227.455ZM212.119 227.455L211.624 227.381L211.539 227.955H212.119V227.455ZM220.201 173.113L220.204 172.613L219.77 172.61L219.706 173.039L220.201 173.113ZM321.583 173.761L321.58 174.261L322.022 174.264L322.079 173.826L321.583 173.761ZM329.665 111.749L330.161 111.814L330.234 111.249H329.665V111.749ZM229.46 111.749L228.966 111.676L228.881 112.249H229.46V111.749ZM207.175 60.608H237.072V59.608H207.175V60.608ZM198.329 111.838L207.667 60.197L206.683 60.019L197.345 111.66L198.329 111.838ZM128.079 112.249H197.837V111.249H128.079V112.249ZM120.335 173.18L128.574 111.815L127.583 111.682L119.344 173.046L120.335 173.18ZM184.973 173.261L119.844 172.613L119.834 173.613L184.963 174.261L184.973 173.261ZM176.909 227.533L185.462 173.84L184.475 173.683L175.922 227.376L176.909 227.533ZM109.952 227.955H176.415V226.955H109.952V227.955ZM100.401 288.252L110.445 227.536L109.459 227.373L99.4149 288.089L100.401 288.252ZM166.303 287.671H99.9082V288.671H166.303V287.671ZM157.919 341.083L166.797 288.254L165.81 288.088L156.933 340.917L157.919 341.083ZM195.326 340.5H157.426V341.5H195.326V340.5ZM194.93 337.279L194.827 340.986L195.826 341.014L195.929 337.307L194.93 337.279ZM202.365 288.096L194.935 337.218L195.924 337.367L203.354 288.245L202.365 288.096ZM317.512 289.94L202.869 287.671L202.849 288.671L317.493 290.939L317.512 289.94ZM321.084 227.422L317.003 290.407L318.001 290.472L322.082 227.487L321.084 227.422ZM212.119 227.955H321.583V226.955H212.119V227.955ZM219.706 173.039L211.624 227.381L212.613 227.528L220.696 173.187L219.706 173.039ZM321.586 173.261L220.204 172.613L220.198 173.613L321.58 174.261L321.586 173.261ZM329.169 111.684L321.087 173.697L322.079 173.826L330.161 111.814L329.169 111.684ZM229.46 112.249H329.665V111.249H229.46V112.249ZM236.577 60.0351L228.966 111.676L229.955 111.822L237.566 60.1809L236.577 60.0351Z" fill="black"/>
<path fill-rule="evenodd" clip-rule="evenodd" d="M46 340.892L88.8858 60H207.175L207.136 60.2161H207.097L206.705 62.5801L197.75 111.777H128.001L119.99 173.263H185.025L176.542 227.629H110.093L100.196 287.82H169.427L160.643 340.892L46 340.892ZM195.091 340.892H297.188L305.776 339.589L314.841 336.33L323.428 331.768L330.585 327.206L335.833 323.296L339.172 319.385L345.852 310.913L352.054 301.137L356.348 291.361L359.687 282.237L361.596 275.068L363.504 262.034V254.865L363.027 242.482L361.119 233.358L358.256 226.189L353.485 217.065L347.283 209.896L340.604 204.03L335.356 200.772L328.676 197.513L324.86 196.21L323.428 194.906L331.062 192.951L337.741 189.693L345.375 185.131L351.577 179.917L360.641 169.489L366.844 158.41L370.183 149.286C370.66 146.679 371.71 141.335 372.092 140.813C372.473 140.292 373.205 135.382 373.523 132.993L374 121.914L372.569 112.138L371.137 103.665L368.275 93.2378L363.027 83.462L359.21 78.2482L353.962 73.0344L348.237 69.1241L342.512 66.5172L335.356 62.6069L326.291 60.6517L237.075 60L237.043 60.2161H237.386L195.091 340.892ZM289.348 228.103H261.451L249.705 289.467H282.985L294.242 287.747L299.625 286.026L302.562 283.732L304.52 281.438L306.967 279.144L310.393 275.13L313.329 269.968L314.308 267.101L315.776 261.939V259.072V256.778L315.287 253.337L314.308 248.175L313.329 244.734L311.861 240.72L310.393 238.999L307.945 236.706L305.498 234.412L303.051 232.691L300.115 230.397L296.2 229.25L289.348 228.103ZM277.567 112.86L267.596 172.573H290.257L295.243 171.354L300.682 170.136L306.574 167.698L310.199 164.652L313.372 160.996L316.998 154.903L319.264 146.981L320.17 140.888V136.623V132.967L319.264 129.311L316.998 125.046L314.278 121.39L311.559 117.734L307.48 115.297L302.948 112.86L297.962 111.641H278.02L277.567 112.86Z" fill="#1C1212"/>
<path d="M88.8858 60V52.5H82.4439L81.4717 58.868L88.8858 60ZM46 340.892L38.5859 339.76L37.268 348.392L46 348.392L46 340.892ZM207.175 60L214.554 61.3434L216.164 52.5H207.175V60ZM207.136 60.2161V67.7161H213.394L214.514 61.5594L207.136 60.2161ZM207.097 60.2161V52.7161H200.736L199.697 58.9914L207.097 60.2161ZM206.705 62.5801L214.084 63.9233L214.095 63.8641L214.105 63.8048L206.705 62.5801ZM197.75 111.777V119.277H204.008L205.128 113.121L197.75 111.777ZM128.001 111.777V104.277H121.415L120.564 110.808L128.001 111.777ZM119.99 173.263L112.553 172.294L111.449 180.763H119.99V173.263ZM185.025 173.263L192.436 174.419L193.786 165.763H185.025V173.263ZM176.542 227.629V235.129H182.963L183.953 228.785L176.542 227.629ZM110.093 227.629V220.129H103.725L102.692 226.412L110.093 227.629ZM100.196 287.82L92.7957 286.603L91.3624 295.32H100.196V287.82ZM169.427 287.82L176.826 289.045L178.27 280.32H169.427V287.82ZM160.643 340.892L160.643 348.392L167.004 348.392L168.042 342.117L160.643 340.892ZM195.091 340.892L187.675 339.774L186.376 348.392H195.091V340.892ZM297.188 340.892V348.392H297.754L298.314 348.307L297.188 340.892ZM305.776 339.589L306.901 347.004L307.625 346.894L308.313 346.646L305.776 339.589ZM314.841 336.33L317.378 343.388L317.884 343.206L318.359 342.953L314.841 336.33ZM323.428 331.768L326.947 338.391L327.209 338.252L327.46 338.092L323.428 331.768ZM330.585 327.206L334.616 333.53L334.847 333.383L335.066 333.22L330.585 327.206ZM335.833 323.296L340.314 329.31L340.989 328.807L341.536 328.166L335.833 323.296ZM339.172 319.385L344.875 324.256L344.971 324.144L345.062 324.028L339.172 319.385ZM345.852 310.913L351.741 315.556L351.979 315.255L352.185 314.931L345.852 310.913ZM352.054 301.137L358.387 305.155L358.692 304.674L358.921 304.153L352.054 301.137ZM356.348 291.361L363.214 294.377L363.309 294.161L363.391 293.939L356.348 291.361ZM359.687 282.237L366.73 284.815L366.847 284.495L366.935 284.166L359.687 282.237ZM361.596 275.068L368.843 276.997L368.954 276.581L369.017 276.155L361.596 275.068ZM363.504 262.034L370.925 263.12L371.004 262.58V262.034H363.504ZM363.504 254.865H371.004V254.72L370.998 254.576L363.504 254.865ZM363.027 242.482L370.521 242.193L370.497 241.563L370.368 240.947L363.027 242.482ZM361.119 233.358L368.46 231.822L368.326 231.183L368.084 230.577L361.119 233.358ZM358.256 226.189L365.221 223.408L365.079 223.053L364.902 222.714L358.256 226.189ZM353.485 217.065L360.131 213.59L359.727 212.817L359.157 212.158L353.485 217.065ZM347.283 209.896L352.955 204.989L352.618 204.6L352.232 204.26L347.283 209.896ZM340.604 204.03L345.553 198.395L345.087 197.986L344.56 197.659L340.604 204.03ZM335.356 200.772L339.312 194.4L338.987 194.199L338.644 194.031L335.356 200.772ZM328.676 197.513L331.965 190.773L331.544 190.567L331.1 190.416L328.676 197.513ZM324.86 196.21L319.81 201.755L320.962 202.804L322.436 203.307L324.86 196.21ZM323.428 194.906L321.567 187.641L308.099 191.09L318.378 200.452L323.428 194.906ZM331.062 192.951L332.923 200.217L333.663 200.027L334.35 199.692L331.062 192.951ZM337.741 189.693L341.03 196.433L341.316 196.294L341.589 196.13L337.741 189.693ZM345.375 185.131L349.222 191.568L349.739 191.259L350.201 190.872L345.375 185.131ZM351.577 179.917L356.403 185.658L356.852 185.28L357.237 184.837L351.577 179.917ZM360.641 169.489L366.302 174.41L366.808 173.827L367.186 173.153L360.641 169.489ZM366.844 158.41L373.388 162.073L373.681 161.551L373.887 160.988L366.844 158.41ZM370.183 149.286L377.226 151.864L377.446 151.264L377.561 150.636L370.183 149.286ZM372.092 140.813L366.04 136.383L366.04 136.383L372.092 140.813ZM373.523 132.993L380.957 133.982L381.002 133.65L381.016 133.315L373.523 132.993ZM374 121.914L381.493 122.236L381.524 121.528L381.421 120.827L374 121.914ZM372.569 112.138L379.99 111.051L379.978 110.97L379.964 110.888L372.569 112.138ZM371.137 103.665L378.533 102.416L378.47 102.044L378.37 101.68L371.137 103.665ZM368.275 93.2378L375.507 91.2524L375.283 90.4361L374.883 89.6904L368.275 93.2378ZM363.027 83.462L369.635 79.9146L369.388 79.4538L369.079 79.0318L363.027 83.462ZM359.21 78.2482L365.262 73.818L364.914 73.3427L364.496 72.9276L359.21 78.2482ZM353.962 73.0344L359.248 67.7138L358.76 67.2291L358.192 66.8412L353.962 73.0344ZM348.237 69.1241L352.467 62.9309L351.933 62.5663L351.345 62.2984L348.237 69.1241ZM342.512 66.5172L338.916 73.0988L339.155 73.2297L339.404 73.3429L342.512 66.5172ZM335.356 62.6069L338.952 56.0253L337.999 55.5045L336.937 55.2755L335.356 62.6069ZM326.291 60.6517L327.872 53.3203L327.118 53.1576L326.346 53.1519L326.291 60.6517ZM237.075 60L237.13 52.5002L230.619 52.4526L229.657 58.8916L237.075 60ZM237.043 60.2161L229.625 59.1076L228.339 67.7161H237.043V60.2161ZM237.386 60.2161L244.802 61.3336L246.101 52.7161H237.386V60.2161ZM261.451 228.103V220.603H255.251L254.085 226.693L261.451 228.103ZM289.348 228.103L290.586 220.706L289.971 220.603H289.348V228.103ZM249.705 289.467L242.339 288.057L240.633 296.967H249.705V289.467ZM282.985 289.467V296.967H283.555L284.119 296.881L282.985 289.467ZM294.242 287.747L295.375 295.161L295.961 295.071L296.525 294.891L294.242 287.747ZM299.625 286.026L301.909 293.17L303.186 292.762L304.243 291.936L299.625 286.026ZM302.562 283.732L307.179 289.642L307.776 289.177L308.267 288.601L302.562 283.732ZM304.52 281.438L299.39 275.967L299.086 276.252L298.815 276.57L304.52 281.438ZM306.967 279.144L312.096 284.616L312.401 284.33L312.672 284.013L306.967 279.144ZM310.393 275.13L316.098 279.998L316.559 279.457L316.911 278.838L310.393 275.13ZM313.329 269.968L319.848 273.677L320.198 273.061L320.427 272.391L313.329 269.968ZM314.308 267.101L321.406 269.524L321.468 269.34L321.522 269.153L314.308 267.101ZM315.776 261.939L322.99 263.991L323.276 262.985V261.939H315.776ZM315.776 256.778H323.276V256.247L323.201 255.722L315.776 256.778ZM315.287 253.337L322.712 252.281L322.688 252.109L322.655 251.939L315.287 253.337ZM314.308 248.175L321.676 246.778L321.614 246.447L321.522 246.123L314.308 248.175ZM313.329 244.734L320.543 242.682L320.467 242.417L320.373 242.158L313.329 244.734ZM311.861 240.72L318.904 238.144L318.441 236.877L317.566 235.851L311.861 240.72ZM310.393 238.999L316.097 234.131L315.826 233.813L315.522 233.528L310.393 238.999ZM307.945 236.706L302.816 242.177L302.816 242.177L307.945 236.706ZM305.498 234.412L310.628 228.94L310.243 228.579L309.812 228.276L305.498 234.412ZM303.051 232.691L298.434 238.601L298.583 238.718L298.738 238.826L303.051 232.691ZM300.115 230.397L304.732 224.487L303.601 223.603L302.223 223.2L300.115 230.397ZM296.2 229.25L298.308 222.053L297.879 221.927L297.438 221.853L296.2 229.25ZM267.596 172.573L260.199 171.338L258.74 180.073H267.596V172.573ZM277.567 112.86L270.538 110.245L270.288 110.917L270.17 111.624L277.567 112.86ZM290.257 172.573V180.073H291.161L292.038 179.858L290.257 172.573ZM295.243 171.354L293.603 164.036L293.532 164.052L293.462 164.069L295.243 171.354ZM300.682 170.136L302.321 177.454L302.952 177.313L303.549 177.066L300.682 170.136ZM306.574 167.698L309.44 174.629L310.511 174.186L311.398 173.44L306.574 167.698ZM310.199 164.652L315.024 170.394L315.477 170.014L315.864 169.567L310.199 164.652ZM313.372 160.996L319.036 165.911L319.475 165.406L319.817 164.831L313.372 160.996ZM316.998 154.903L323.443 158.738L323.941 157.901L324.208 156.966L316.998 154.903ZM319.264 146.981L326.475 149.044L326.61 148.572L326.682 148.085L319.264 146.981ZM320.17 140.888L327.589 141.992L327.67 141.443V140.888H320.17ZM320.17 132.967H327.67V132.051L327.45 131.162L320.17 132.967ZM319.264 129.311L326.543 127.506L326.321 126.609L325.887 125.792L319.264 129.311ZM316.998 125.046L323.621 121.527L323.354 121.025L323.016 120.57L316.998 125.046ZM314.278 121.39L308.261 125.866L308.261 125.866L314.278 121.39ZM311.559 117.734L317.577 113.258L316.687 112.061L315.406 111.296L311.559 117.734ZM307.48 115.297L311.327 108.859L311.181 108.772L311.032 108.691L307.48 115.297ZM302.948 112.86L306.5 106.254L305.658 105.801L304.729 105.574L302.948 112.86ZM297.962 111.641L299.743 104.355L298.866 104.141H297.962V111.641ZM278.02 111.641V104.141H272.808L270.991 109.027L278.02 111.641ZM81.4717 58.868L38.5859 339.76L53.4141 342.024L96.2999 61.132L81.4717 58.868ZM207.175 52.5H88.8858V67.5H207.175V52.5ZM214.514 61.5594L214.554 61.3434L199.796 58.6566L199.757 58.8727L214.514 61.5594ZM207.097 67.7161H207.136V52.7161H207.097V67.7161ZM214.105 63.8048L214.496 61.4407L199.697 58.9914L199.306 61.3555L214.105 63.8048ZM205.128 113.121L214.084 63.9233L199.327 61.2369L190.371 110.434L205.128 113.121ZM128.001 119.277H197.75V104.277H128.001V119.277ZM127.427 174.232L135.439 112.746L120.564 110.808L112.553 172.294L127.427 174.232ZM185.025 165.763H119.99V180.763H185.025V165.763ZM183.953 228.785L192.436 174.419L177.615 172.107L169.132 226.473L183.953 228.785ZM110.093 235.129H176.542V220.129H110.093V235.129ZM107.597 289.037L117.494 228.846L102.692 226.412L92.7957 286.603L107.597 289.037ZM169.427 280.32H100.196V295.32H169.427V280.32ZM168.042 342.117L176.826 289.045L162.027 286.596L153.244 339.667L168.042 342.117ZM46 348.392L160.643 348.392L160.643 333.392L46 333.392L46 348.392ZM195.091 348.392H297.188V333.392H195.091V348.392ZM298.314 348.307L306.901 347.004L304.651 332.173L296.063 333.477L298.314 348.307ZM308.313 346.646L317.378 343.388L312.304 329.272L303.239 332.531L308.313 346.646ZM318.359 342.953L326.947 338.391L319.91 325.145L311.322 329.707L318.359 342.953ZM327.46 338.092L334.616 333.53L326.553 320.882L319.397 325.444L327.46 338.092ZM335.066 333.22L340.314 329.31L331.352 317.281L326.104 321.192L335.066 333.22ZM341.536 328.166L344.875 324.256L333.469 314.514L330.13 318.425L341.536 328.166ZM345.062 324.028L351.741 315.556L339.962 306.27L333.283 314.742L345.062 324.028ZM352.185 314.931L358.387 305.155L345.721 297.119L339.519 306.895L352.185 314.931ZM358.921 304.153L363.214 294.377L349.481 288.345L345.187 298.121L358.921 304.153ZM363.391 293.939L366.73 284.815L352.644 279.659L349.305 288.783L363.391 293.939ZM366.935 284.166L368.843 276.997L354.348 273.139L352.44 280.308L366.935 284.166ZM369.017 276.155L370.925 263.12L356.083 260.947L354.175 273.982L369.017 276.155ZM371.004 262.034V254.865H356.004V262.034H371.004ZM370.998 254.576L370.521 242.193L355.532 242.771L356.01 255.154L370.998 254.576ZM370.368 240.947L368.46 231.822L353.777 234.893L355.686 244.018L370.368 240.947ZM368.084 230.577L365.221 223.408L351.291 228.97L354.153 236.139L368.084 230.577ZM364.902 222.714L360.131 213.59L346.839 220.54L351.61 229.664L364.902 222.714ZM359.157 212.158L352.955 204.989L341.611 214.803L347.813 221.972L359.157 212.158ZM352.232 204.26L345.553 198.395L335.655 209.666L342.334 215.531L352.232 204.26ZM344.56 197.659L339.312 194.4L331.399 207.143L336.647 210.402L344.56 197.659ZM338.644 194.031L331.965 190.773L325.388 204.254L332.067 207.512L338.644 194.031ZM331.1 190.416L327.283 189.112L322.436 203.307L326.252 204.611L331.1 190.416ZM329.909 190.665L328.478 189.361L318.378 200.452L319.81 201.755L329.909 190.665ZM325.289 202.172L332.923 200.217L329.201 185.686L321.567 187.641L325.289 202.172ZM334.35 199.692L341.03 196.433L334.453 182.952L327.773 186.211L334.35 199.692ZM341.589 196.13L349.222 191.568L341.527 178.693L333.894 183.255L341.589 196.13ZM350.201 190.872L356.403 185.658L346.751 174.176L340.548 179.39L350.201 190.872ZM357.237 184.837L366.302 174.41L354.981 164.569L345.916 174.996L357.237 184.837ZM367.186 173.153L373.388 162.073L360.299 154.746L354.097 165.826L367.186 173.153ZM373.887 160.988L377.226 151.864L363.14 146.708L359.801 155.832L373.887 160.988ZM377.561 150.636C377.791 149.378 378.158 147.468 378.507 145.838C378.684 145.012 378.84 144.335 378.959 143.874C379.022 143.633 379.05 143.546 379.044 143.564C379.042 143.57 379.003 143.69 378.926 143.873C378.896 143.944 378.652 144.549 378.143 145.243L366.04 136.383C365.18 137.558 364.806 138.845 364.795 138.877C364.657 139.297 364.537 139.733 364.44 140.108C364.24 140.877 364.032 141.796 363.839 142.698C363.449 144.521 363.053 146.587 362.806 147.936L377.561 150.636ZM378.143 145.244C379.052 144.003 379.407 142.668 379.428 142.599C379.563 142.154 379.67 141.706 379.752 141.339C379.92 140.584 380.082 139.702 380.225 138.86C380.515 137.152 380.791 135.233 380.957 133.982L366.088 132.003C365.937 133.143 365.688 134.873 365.437 136.348C365.31 137.097 365.197 137.689 365.111 138.076C365.066 138.28 365.051 138.32 365.071 138.253C365.081 138.221 365.127 138.069 365.216 137.85C365.264 137.731 365.514 137.101 366.04 136.383L378.143 145.244ZM381.016 133.315L381.493 122.236L366.507 121.591L366.03 132.67L381.016 133.315ZM381.421 120.827L379.99 111.051L365.148 113.224L366.579 123L381.421 120.827ZM379.964 110.888L378.533 102.416L363.742 104.915L365.174 113.387L379.964 110.888ZM378.37 101.68L375.507 91.2524L361.042 95.2232L363.905 105.651L378.37 101.68ZM374.883 89.6904L369.635 79.9146L356.419 87.0094L361.667 96.7852L374.883 89.6904ZM369.079 79.0318L365.262 73.818L353.158 82.6784L356.975 87.8922L369.079 79.0318ZM364.496 72.9276L359.248 67.7138L348.676 78.3551L353.924 83.5688L364.496 72.9276ZM358.192 66.8412L352.467 62.9309L344.007 75.3173L349.732 79.2277L358.192 66.8412ZM351.345 62.2984L345.62 59.6915L339.404 73.3429L345.129 75.9498L351.345 62.2984ZM346.108 59.9357L338.952 56.0253L331.759 69.1884L338.916 73.0988L346.108 59.9357ZM336.937 55.2755L327.872 53.3203L324.71 67.9831L333.774 69.9383L336.937 55.2755ZM326.346 53.1519L237.13 52.5002L237.02 67.4998L326.236 68.1515L326.346 53.1519ZM229.657 58.8916L229.625 59.1076L244.46 61.3245L244.493 61.1084L229.657 58.8916ZM237.043 67.7161H237.386V52.7161H237.043V67.7161ZM229.969 59.0985L187.675 339.774L202.507 342.01L244.802 61.3336L229.969 59.0985ZM261.451 235.603H289.348V220.603H261.451V235.603ZM257.072 290.877L268.817 229.513L254.085 226.693L242.339 288.057L257.072 290.877ZM282.985 281.967H249.705V296.967H282.985V281.967ZM293.109 280.333L281.852 282.053L284.119 296.881L295.375 295.161L293.109 280.333ZM297.342 278.882L291.959 280.603L296.525 294.891L301.909 293.17L297.342 278.882ZM297.945 277.822L295.008 280.116L304.243 291.936L307.179 289.642L297.945 277.822ZM298.815 276.57L296.857 278.864L308.267 288.601L310.225 286.307L298.815 276.57ZM301.837 273.673L299.39 275.967L309.649 286.91L312.096 284.616L301.837 273.673ZM304.688 270.261L301.262 274.276L312.672 284.013L316.098 279.998L304.688 270.261ZM306.81 266.26L303.874 271.421L316.911 278.838L319.848 273.677L306.81 266.26ZM307.21 264.678L306.231 267.545L320.427 272.391L321.406 269.524L307.21 264.678ZM308.562 259.887L307.094 265.049L321.522 269.153L322.99 263.991L308.562 259.887ZM308.276 259.072V261.939H323.276V259.072H308.276ZM308.276 256.778V259.072H323.276V256.778H308.276ZM307.861 254.393L308.351 257.834L323.201 255.722L322.712 252.281L307.861 254.393ZM306.939 249.573L307.918 254.734L322.655 251.939L321.676 246.778L306.939 249.573ZM306.115 246.787L307.094 250.228L321.522 246.123L320.543 242.682L306.115 246.787ZM304.817 243.296L306.285 247.311L320.373 242.158L318.904 238.144L304.817 243.296ZM304.688 243.868L306.156 245.589L317.566 235.851L316.097 234.131L304.688 243.868ZM302.816 242.177L305.263 244.471L315.522 233.528L313.075 231.234L302.816 242.177ZM300.369 239.883L302.816 242.177L313.075 231.234L310.628 228.94L300.369 239.883ZM298.738 238.826L301.185 240.547L309.812 228.276L307.365 226.556L298.738 238.826ZM295.498 236.307L298.434 238.601L307.668 226.781L304.732 224.487L295.498 236.307ZM294.091 236.448L298.006 237.595L302.223 223.2L298.308 222.053L294.091 236.448ZM288.109 235.5L294.961 236.647L297.438 221.853L290.586 220.706L288.109 235.5ZM274.994 173.808L284.965 114.095L270.17 111.624L260.199 171.338L274.994 173.808ZM290.257 165.073H267.596V180.073H290.257V165.073ZM293.462 164.069L288.477 165.287L292.038 179.858L297.024 178.64L293.462 164.069ZM299.042 162.817L293.603 164.036L296.883 178.673L302.321 177.454L299.042 162.817ZM303.707 160.768L297.815 163.205L303.549 177.066L309.44 174.629L303.707 160.768ZM305.375 158.91L301.749 161.956L311.398 173.44L315.024 170.394L305.375 158.91ZM307.707 156.08L304.535 159.736L315.864 169.567L319.036 165.911L307.707 156.08ZM310.553 151.067L306.927 157.161L319.817 164.831L323.443 158.738L310.553 151.067ZM312.053 144.919L309.787 152.84L324.208 156.966L326.475 149.044L312.053 144.919ZM312.752 139.785L311.846 145.878L326.682 148.085L327.589 141.992L312.752 139.785ZM312.67 136.623V140.888H327.67V136.623H312.67ZM312.67 132.967V136.623H327.67V132.967H312.67ZM311.984 131.116L312.891 134.772L327.45 131.162L326.543 127.506L311.984 131.116ZM310.375 128.565L312.641 132.83L325.887 125.792L323.621 121.527L310.375 128.565ZM308.261 125.866L310.98 129.522L323.016 120.57L320.296 116.914L308.261 125.866ZM305.541 122.21L308.261 125.866L320.296 116.914L317.577 113.258L305.541 122.21ZM303.633 121.735L307.712 124.172L315.406 111.296L311.327 108.859L303.633 121.735ZM299.396 119.465L303.928 121.902L311.032 108.691L306.5 106.254L299.396 119.465ZM296.181 118.926L301.167 120.145L304.729 105.574L299.743 104.355L296.181 118.926ZM278.02 119.141H297.962V104.141H278.02V119.141ZM284.597 115.474L285.05 114.255L270.991 109.027L270.538 110.245L284.597 115.474Z" fill="#1C1212"/>
<path fill-rule="evenodd" clip-rule="evenodd" d="M282.976 111.641H216.591V121.364H282.976V111.641ZM212.982 136.705H279.366V146.428H212.982V136.705ZM212.982 162.634H279.366V172.357H212.982V162.634Z" fill="#B70501"/>
<path fill-rule="evenodd" clip-rule="evenodd" d="M269.479 228.319H203.095V238.042H269.479V228.319ZM199.485 253.383H265.87V263.107H199.485V253.383ZM199.485 279.312H265.87V289.035H199.485V279.312Z" fill="#B70501"/>
<path fill-rule="evenodd" clip-rule="evenodd" d="M311.225 60.5965L267.951 340.892H273.788L317.054 60.6482H311.225V60.5965ZM297.272 60.4321L253.973 340.892H259.81L303.109 60.4321H297.272ZM240.053 340.892L283.352 60.4322H289.305L246.006 340.892H240.053Z" fill="#B70501"/>
</svg>
